<?xml version="1.0" standalone="no"?>
<!DOCTYPE svg PUBLIC "-//W3C//DTD SVG 20010904//EN"
 "http://www.w3.org/TR/2001/REC-SVG-20010904/DTD/svg10.dtd">
<svg version="1.0" xmlns="http://www.w3.org/2000/svg"
 width="960.000000pt" height="960.000000pt" viewBox="0 0 960.000000 960.000000"
 preserveAspectRatio="xMidYMid meet">
<metadata>
Created by potrace 1.14, written by Peter Selinger 2001-2017
</metadata>
<g transform="translate(0.000000,960.000000) scale(0.100000,-0.100000)"
fill="#000000" stroke="none">
<path d="M5368 7468 c-29 -10 -61 -22 -70 -25 -10 -3 -18 -9 -18 -14 0 -5 -5
-9 -10 -9 -15 0 -62 -51 -88 -94 -18 -30 -111 -329 -127 -406 -2 -8 -4 -15 -5
-15 -1 0 -3 -7 -5 -15 -2 -8 -51 -181 -110 -385 -120 -419 -175 -612 -210
-735 -13 -47 -31 -107 -39 -135 -22 -77 -81 -286 -121 -429 -20 -71 -38 -133
-41 -137 -3 -5 -7 -18 -9 -28 -4 -23 -283 -1004 -320 -1126 -25 -82 -155 -537
-182 -635 -8 -30 -60 -210 -115 -400 -103 -354 -114 -415 -95 -513 14 -73 73
-158 142 -204 80 -55 217 -64 316 -22 30 13 56 27 57 31 2 4 8 8 13 8 13 0 56
47 86 93 20 32 169 530 309 1037 19 69 51 178 70 244 20 65 37 126 39 135 3
14 32 117 64 226 35 119 252 874 256 895 2 8 61 213 130 455 70 242 138 481
152 530 14 50 36 128 50 175 13 47 26 92 28 100 2 8 29 103 60 210 31 107 58
202 60 210 2 8 25 87 50 175 26 88 53 185 61 215 8 30 25 84 36 120 32 95 30
216 -4 290 -28 59 -74 115 -123 147 -75 50 -198 63 -287 31z"/>
<path d="M2875 6303 c-39 -10 -120 -48 -144 -68 -13 -11 -292 -289 -621 -617
-671 -671 -661 -660 -666 -795 -3 -86 16 -159 56 -218 37 -54 1215 -1231 1260
-1260 114 -72 274 -71 384 1 52 35 80 68 112 134 22 46 27 69 27 140 1 71 -3
94 -25 141 -36 78 20 20 -718 750 l-292 289 288 285 c619 613 676 671 700 712
33 54 44 95 48 167 6 104 -29 190 -109 268 -61 59 -207 93 -300 71z"/>
<path d="M6535 6293 c-57 -19 -125 -68 -157 -112 -58 -82 -78 -204 -50 -307
25 -86 32 -94 761 -813 l264 -261 -289 -286 c-506 -500 -645 -638 -671 -669
-100 -118 -105 -308 -10 -430 17 -22 35 -42 39 -43 5 -2 14 -10 21 -17 41 -40
108 -59 212 -59 85 0 163 25 214 69 91 78 1211 1210 1236 1250 43 67 54 111
51 204 -4 139 7 125 -660 793 -325 325 -610 606 -633 625 -80 66 -225 90 -328
56z"/>
</g>
</svg>
